<svg width="17" height="25" viewBox="0 0 17 25" fill="none" xmlns="http://www.w3.org/2000/svg">
<path d="M8.91688 0C9.33133 0.0543419 9.7485 0.0869471 10.1548 0.165743C11.7826 0.478209 13.1923 1.21998 14.3893 2.36116C15.4936 3.41267 16.2516 4.67612 16.6769 6.1352C16.9223 6.97479 17.0123 7.83339 16.9987 8.70829C16.9769 9.87936 16.6497 10.9798 16.2597 12.0666C15.6953 13.6453 14.9673 15.1505 14.1357 16.6042C13.5086 17.6992 12.8623 18.7833 12.178 19.843C11.4581 20.9542 10.6892 22.0356 9.92301 23.1198C9.49493 23.7257 9.03412 24.3099 8.58695 24.9022C8.56514 24.9294 8.5406 24.9565 8.50515 25C8.33065 24.7772 8.1616 24.5625 7.99527 24.3452C6.73556 22.685 5.54128 20.9814 4.42881 19.2207C3.49902 17.7535 2.62922 16.2509 1.86576 14.6886C1.225 13.3735 0.671486 12.0259 0.289755 10.613C-0.0483495 9.36583 -0.0947025 8.09966 0.172509 6.83893C0.706933 4.28486 2.11661 2.35844 4.38246 1.06782C5.48675 0.437452 6.68102 0.100533 7.95164 0.0217368C7.99254 0.0190197 8.03072 0.00815129 8.07162 0C8.35519 0 8.63603 0 8.91688 0ZM4.34428 8.46375C4.36882 10.8059 6.23931 12.6073 8.51333 12.6128C10.7955 12.6182 12.6606 10.7597 12.6715 8.46919C12.6797 6.20585 10.8146 4.33105 8.54605 4.3229C6.22295 4.31475 4.34974 6.16237 4.34428 8.46375Z" fill="#003F5A"/>
</svg>
